<svg id="bell" xmlns="http://www.w3.org/2000/svg" width="469.332" height="512" viewBox="0 0 469.332 512">
  <path id="Path_4" data-name="Path 4" d="M453.332,229.332a16.006,16.006,0,0,1-16-16A227.877,227.877,0,0,0,370.176,51.156a16.005,16.005,0,0,1,22.637-22.633,259.72,259.72,0,0,1,76.52,184.809,16.006,16.006,0,0,1-16,16Zm0,0" fill="#fff"/>
  <path id="Path_5" data-name="Path 5" d="M16,229.332a16.006,16.006,0,0,1-16-16A259.583,259.583,0,0,1,76.543,28.543,16.007,16.007,0,1,1,99.18,51.18,227.724,227.724,0,0,0,32,213.332a16.006,16.006,0,0,1-16,16Zm0,0" fill="#fff"/>
  <path id="Path_6" data-name="Path 6" d="M234.668,512a80.084,80.084,0,0,1-80-80,16,16,0,0,1,32,0,48,48,0,0,0,96,0,16,16,0,0,1,32,0A80.084,80.084,0,0,1,234.668,512Zm0,0" fill="#fff"/>
  <path id="Path_7" data-name="Path 7" d="M410.668,448h-352a37.34,37.34,0,0,1-24.277-65.707,142.973,142.973,0,0,0,50.941-109.48v-59.48C85.332,130.989,152.32,64,234.668,64S384,130.989,384,213.332v59.48a142.937,142.937,0,0,0,50.73,109.332A37.319,37.319,0,0,1,410.668,448Zm-176-352A117.458,117.458,0,0,0,117.332,213.332v59.48A174.843,174.843,0,0,1,55.254,406.57a5.322,5.322,0,0,0-1.922,4.1A5.393,5.393,0,0,0,58.668,416h352A5.393,5.393,0,0,0,416,410.668a5.255,5.255,0,0,0-1.879-4.055A174.9,174.9,0,0,1,352,272.812v-59.48A117.457,117.457,0,0,0,234.668,96Zm0,0" fill="#fff"/>
  <path id="Path_8" data-name="Path 8" d="M234.668,96a16.006,16.006,0,0,1-16-16V16a16,16,0,0,1,32,0V80A16.006,16.006,0,0,1,234.668,96Zm0,0" fill="#fff"/>
</svg>
