<svg xmlns="http://www.w3.org/2000/svg" width="502.4" height="351.1" viewBox="0 0 502.4 351.1">
  <g id="pound-sterling" transform="translate(0 -75.65)">
    <g id="Group_8" data-name="Group 8">
      <g id="Group_7" data-name="Group 7">
        <path id="Path_11" data-name="Path 11" d="M501.4,267.65c-2.3-12.7-15.7-22.9-40.4-30.4-20.2-6.1-45.8-9.7-73.8-10.3V120.15a9.434,9.434,0,0,0-2.4-6.4c-3.5-11.4-16.8-20.7-39.7-27.6-22.5-6.8-51.8-10.5-82.7-10.5-30.8,0-59.9,3.7-81.9,10.5-18.1,5.6-39.8,16-39.8,33.9a18.413,18.413,0,0,0,.3,3.3l1.1,45.6a119.655,119.655,0,1,0,53.1,210.4c18.8,4.4,40.8,6.8,64.2,7,5.1,27.7,65.2,40.4,121.2,40.4,30.8,0,59.8-3.8,82-10.7,18.2-5.6,39.8-16.1,39.8-34V272.15A9.883,9.883,0,0,0,501.4,267.65ZM186.3,105.25c20.2-6.2,47.2-9.7,76-9.7,28.6,0,56.6,3.5,77,9.7,21.7,6.6,26.4,13.4,26.4,14.8s-4.7,8.3-26.5,14.8c-20.3,6.1-48.3,9.7-76.9,9.7-27.6,0-53.8-3.2-73.7-9-21.5-6.2-27.5-13.1-28-15.3,0-.2,0-.3-.1-.3C160.7,118.55,165.3,111.75,186.3,105.25Zm180.9,39.7v25.4a8.391,8.391,0,0,0-1.4,5.1c0,1.3-4.7,8.2-26.4,14.8-20.3,6.1-48.4,9.7-77,9.7-24.7,0-48.9-2.6-68.1-7.5a2.2,2.2,0,0,0-.8-.1,118.4,118.4,0,0,0-31.3-17.8l-.7-28.1a110.791,110.791,0,0,0,21.6,8.3c21.7,6.3,49.8,9.7,79.3,9.7,30.9,0,60.2-3.7,82.7-10.5A111.437,111.437,0,0,0,367.2,144.95ZM186.7,360.15a99.67,99.67,0,1,1-67.1-173.4,101.345,101.345,0,0,1,29.5,4.4,98.181,98.181,0,0,1,35.3,19.6,100.6,100.6,0,0,1,32.9,55.5,104.58,104.58,0,0,1,2,20.1A98.978,98.978,0,0,1,186.7,360.15Zm25.4,2.2a120.747,120.747,0,0,0,19.2-32.9c8.6.7,17.5,1.2,26.8,1.3v1.6a2.768,2.768,0,0,0,.1.9l.5,33.2A316.4,316.4,0,0,1,212.1,362.35Zm26.6-87.8c5.9.4,12,.6,18.2.7.1.5.2.9.3,1.4l.5,34.1c-7.1-.1-14.1-.4-20.8-.9a122.926,122.926,0,0,0,2.3-23.4A94.745,94.745,0,0,0,238.7,274.55Zm24.5-19.2h-.8c-9.6,0-18.9-.4-27.4-1a118.313,118.313,0,0,0-17.8-37.2,360.165,360.165,0,0,0,45.3,2.9c30.9,0,60.3-3.7,82.7-10.5a111.437,111.437,0,0,0,22.1-9v26.6c-25,.7-48.4,4-67.1,9.3C282.5,241.25,270.1,247.65,263.2,255.35Zm13.6,15.2c1.4-2.9,8.8-9.2,28.8-14.9,19.5-5.5,45-8.5,71.7-8.5h1.1c28.6,0,56.6,3.3,77,9.5,21.1,6.4,26.1,12.8,26.4,14.5v.1c-.1,1.5-5.1,8.4-27.3,15-20.5,6.1-47.5,9.4-76.1,9.4-59.5,0-95.6-14.2-101.1-22.9A14.187,14.187,0,0,0,276.8,270.55Zm1,49.9-.3-22.8c23.5,12.3,63.2,18,100.7,18,30.4,0,59.3-3.6,81.6-10.2a119.252,119.252,0,0,0,22.3-8.9v25.3h.1c0,1.4-1.1,3-1.1,4.8,0,1.4-4.6,8.2-26.2,14.8-20.5,6.2-47.7,9.6-76.7,9.6-54.7,0-91.8-12.2-100.2-21.9Zm204.4,61.6c0,1.4-4.5,8.3-25.7,14.9-20.3,6.3-47.3,9.8-76.1,9.8-28.9,0-55.9-3.4-75.9-9.5-21.2-6.5-25.5-13.2-25.5-14.7v-.2l-.4-28.8a133.453,133.453,0,0,0,24.8,9c21,5.5,47.6,8.6,75.1,8.6,30.9,0,60.1-3.7,82.4-10.5,7.2-2.2,15.5-5.1,21.5-8.9Z" fill="#fff"/>
      </g>
    </g>
    <g id="Group_10" data-name="Group 10">
      <g id="Group_9" data-name="Group 9">
        <path id="Path_12" data-name="Path 12" d="M175.3,341.25a9.962,9.962,0,0,0-12.4-6.7l-6.7,2a27.85,27.85,0,0,1-20.8-1.8,48.277,48.277,0,0,0-21.8-5.2c-1.2,0-2.4.1-3.7.2a56.134,56.134,0,0,0,4.1-16.6c0-.3.1-.5.1-.8.2-3.1.4-6.2.4-9.2h21.7a10,10,0,0,0,0-20H113.3a121.573,121.573,0,0,0-2.5-13.4,71.493,71.493,0,0,1-2.2-15.3,21.231,21.231,0,0,1,1.4-7.5,19.855,19.855,0,0,1,4-6.3,20.442,20.442,0,0,1,6.3-4.2,21.022,21.022,0,0,1,8.2-1.6c14.3,0,17.6,7.9,18.9,13.9a10,10,0,1,0,19.6-4v-.2c-4-18.9-18-29.8-38.4-29.8a41.817,41.817,0,0,0-16,3.1,37.315,37.315,0,0,0-12.8,8.7l-.1.1a40.259,40.259,0,0,0-11,27.6,84.5,84.5,0,0,0,2.7,20,83.579,83.579,0,0,1,1.7,8.7H73.3a10,10,0,0,0,0,20H94.6c0,2-.1,4.7-.3,7.1,0,.3-.1.5-.1.8a35.129,35.129,0,0,1-6.7,18.2l-5.1,6.9a10.017,10.017,0,0,0,9.2,15.9l18.7-2.2c1.1-.1,2.2-.2,3.3-.2a28.02,28.02,0,0,1,12.7,3.1,46.888,46.888,0,0,0,35.6,3.1l6.7-2A9.968,9.968,0,0,0,175.3,341.25Z" fill="#fff"/>
      </g>
    </g>
  </g>
</svg>
