<?xml version="1.0" encoding="iso-8859-1"?>
<!-- Generator: Adobe Illustrator 19.0.0, SVG Export Plug-In . SVG Version: 6.00 Build 0)  -->
<svg version="1.1" id="Capa_1" xmlns="http://www.w3.org/2000/svg" xmlns:xlink="http://www.w3.org/1999/xlink" x="0px" y="0px"
	 viewBox="0 0 502.4 502.4" style="enable-background:new 0 0 502.4 502.4;" xml:space="preserve">
<g>
	<g>
		<path d="M501.4,267.65c-2.3-12.7-15.7-22.9-40.4-30.4c-20.2-6.1-45.8-9.7-73.8-10.3v-106.8c0-2.4-0.8-4.6-2.4-6.4
			c-3.5-11.4-16.8-20.7-39.7-27.6c-22.5-6.8-51.8-10.5-82.7-10.5c-30.8,0-59.9,3.7-81.9,10.5c-18.1,5.6-39.8,16-39.8,33.9
			c0,1.1,0.1,2.2,0.3,3.3l1.1,45.6c-65-12.4-127.7,30.3-140,95.2c-1.4,7.4-2.1,14.8-2.1,22.3c0,66,53.7,119.7,119.7,119.7
			c27.5,0,54.1-9.5,75.5-26.8c18.8,4.4,40.8,6.8,64.2,7c5.1,27.7,65.2,40.4,121.2,40.4c30.8,0,59.8-3.8,82-10.7
			c18.2-5.6,39.8-16.1,39.8-34v-109.9C502.4,270.55,502.1,269.05,501.4,267.65z M186.3,105.25c20.2-6.2,47.2-9.7,76-9.7
			c28.6,0,56.6,3.5,77,9.7c21.7,6.6,26.4,13.4,26.4,14.8c0,1.4-4.7,8.3-26.5,14.8c-20.3,6.1-48.3,9.7-76.9,9.7
			c-27.6,0-53.8-3.2-73.7-9c-21.5-6.2-27.5-13.1-28-15.3c0-0.2,0-0.3-0.1-0.3C160.7,118.55,165.3,111.75,186.3,105.25z
			 M367.2,144.95v25.4c-1,1.5-1.5,3.3-1.4,5.1c0,1.3-4.7,8.2-26.4,14.8c-20.3,6.1-48.4,9.7-77,9.7c-24.7,0-48.9-2.6-68.1-7.5
			c-0.3-0.1-0.5-0.1-0.8-0.1c-9.5-7.5-20-13.5-31.3-17.8l-0.7-28.1c6.9,3.5,14.1,6.3,21.6,8.3c21.7,6.3,49.8,9.7,79.3,9.7
			c30.9,0,60.2-3.7,82.7-10.5C352.7,151.75,360.2,148.75,367.2,144.95z M186.7,360.15c-40.7,37.1-103.8,34.1-140.8-6.6
			s-34.1-103.8,6.6-140.8c18.4-16.7,42.3-26,67.1-26c10,0,20,1.5,29.5,4.4c13,4,25,10.7,35.3,19.6c16.8,14.4,28.3,33.9,32.9,55.5
			c1.3,6.6,2,13.4,2,20.1C219.4,314.55,207.5,341.35,186.7,360.15z M212.1,362.35c8.1-9.9,14.6-21,19.2-32.9
			c8.6,0.7,17.5,1.2,26.8,1.3v0.9c0,0.2,0,0.5,0,0.7c0,0.3,0,0.6,0.1,0.9l0.5,33.2C243.1,366.25,227.5,364.85,212.1,362.35z
			 M238.7,274.55c5.9,0.4,12,0.6,18.2,0.7c0.1,0.5,0.2,0.9,0.3,1.4l0.5,34.1c-7.1-0.1-14.1-0.4-20.8-0.9c1.5-7.7,2.3-15.6,2.3-23.4
			C239.3,282.45,239.1,278.55,238.7,274.55z M263.2,255.35c-0.3,0-0.5,0-0.8,0c-9.6,0-18.9-0.4-27.4-1c-3.7-13.4-9.8-26-17.8-37.2
			c15,1.9,30.1,2.9,45.3,2.9c30.9,0,60.3-3.7,82.7-10.5c7.7-2.2,15-5.2,22.1-9v26.6c-25,0.7-48.4,4-67.1,9.3
			C282.5,241.25,270.1,247.65,263.2,255.35z M276.8,270.55c1.4-2.9,8.8-9.2,28.8-14.9c19.5-5.5,45-8.5,71.7-8.5h1.1
			c28.6,0,56.6,3.3,77,9.5c21.1,6.4,26.1,12.8,26.4,14.5v0.1c-0.1,1.5-5.1,8.4-27.3,15c-20.5,6.1-47.5,9.4-76.1,9.4
			c-59.5,0-95.6-14.2-101.1-22.9C277.2,271.95,277,271.25,276.8,270.55z M277.8,320.45l-0.3-22.8c23.5,12.3,63.2,18,100.7,18
			c30.4,0,59.3-3.6,81.6-10.2c7.7-2.2,15.2-5.2,22.3-8.9v25.3h0.1c0,1.4-1.1,3-1.1,4.8c0,1.4-4.6,8.2-26.2,14.8
			c-20.5,6.2-47.7,9.6-76.7,9.6c-54.7,0-91.8-12.2-100.2-21.9L277.8,320.45z M482.2,382.05c0,1.4-4.5,8.3-25.7,14.9
			c-20.3,6.3-47.3,9.8-76.1,9.8c-28.9,0-55.9-3.4-75.9-9.5c-21.2-6.5-25.5-13.2-25.5-14.7c0-0.1,0-0.1,0-0.2l-0.4-28.8
			c7.9,3.8,16.2,6.8,24.8,9c21,5.5,47.6,8.6,75.1,8.6c30.9,0,60.1-3.7,82.4-10.5c7.2-2.2,15.5-5.1,21.5-8.9L482.2,382.05z"/>
	</g>
</g>
<g>
	<g>
		<path d="M175.3,341.25c-1.5-5.2-7.1-8.3-12.4-6.7l-6.7,2c-6.9,2.1-14.3,1.5-20.8-1.8c-6.7-3.4-14.2-5.2-21.8-5.2
			c-1.2,0-2.4,0.1-3.7,0.2c2.2-5.3,3.6-10.9,4.1-16.6c0-0.3,0.1-0.5,0.1-0.8c0.2-3.1,0.4-6.2,0.4-9.2h21.7c5.5,0,10-4.5,10-10
			s-4.5-10-10-10h-22.9c-0.6-4.5-1.4-9-2.5-13.4c-1.3-5-2-10.1-2.2-15.3c0-2.6,0.5-5.1,1.4-7.5c0.9-2.3,2.3-4.5,4-6.3
			c1.8-1.8,4-3.2,6.3-4.2c2.6-1.1,5.4-1.6,8.2-1.6c14.3,0,17.6,7.9,18.9,13.9c1.1,5.4,6.4,8.9,11.8,7.8c5.4-1.1,8.9-6.4,7.8-11.8
			c0-0.1,0-0.1,0-0.2c-4-18.9-18-29.8-38.4-29.8c-5.5,0-10.9,1-16,3.1c-4.8,2-9.2,4.9-12.8,8.7l-0.1,0.1c-7,7.4-11,17.3-11,27.6
			c0.1,6.7,1,13.5,2.7,20c0.7,2.9,1.3,5.7,1.7,8.7H73.3c-5.5,0-10,4.5-10,10s4.5,10,10,10h21.3c0,2-0.1,4.7-0.3,7.1
			c0,0.3-0.1,0.5-0.1,0.8c-0.5,6.6-2.8,12.9-6.7,18.2l-5.1,6.9c-3.3,4.5-2.3,10.7,2.1,14c2,1.5,4.6,2.2,7.1,1.9l18.7-2.2
			c1.1-0.1,2.2-0.2,3.3-0.2c4.4,0,8.8,1.1,12.7,3.1c11,5.7,23.8,6.8,35.6,3.1l6.7-2C173.9,352.05,176.9,346.45,175.3,341.25z"/>
	</g>
</g>
<g>
</g>
<g>
</g>
<g>
</g>
<g>
</g>
<g>
</g>
<g>
</g>
<g>
</g>
<g>
</g>
<g>
</g>
<g>
</g>
<g>
</g>
<g>
</g>
<g>
</g>
<g>
</g>
<g>
</g>
</svg>
