<svg xmlns="http://www.w3.org/2000/svg" width="486.463" height="444.7" viewBox="0 0 486.463 444.7">
  <g id="warning" transform="translate(0 -20.882)">
    <g id="Group_11" data-name="Group 11">
      <path id="Path_13" data-name="Path 13" d="M243.225,333.382a25,25,0,0,0,0,50c13.1,0,25-11.4,24.4-24.4A24.41,24.41,0,0,0,243.225,333.382Z" fill="#fff"/>
      <path id="Path_14" data-name="Path 14" d="M474.625,421.982a85.369,85.369,0,0,0,.2-86.4l-156.6-271.2a86.282,86.282,0,0,0-149.8-.1l-156.8,271.5a86.609,86.609,0,0,0,75,129.8h312.8C430.725,465.582,458.825,449.282,474.625,421.982Zm-34-19.6a47.255,47.255,0,0,1-41.3,23.9H86.525a46.61,46.61,0,0,1-40.8-23.4,47.32,47.32,0,0,1-.1-47.7l156.8-271.4a47.092,47.092,0,0,1,81.8.1l156.7,271.4A46.691,46.691,0,0,1,440.625,402.382Z" fill="#fff"/>
      <path id="Path_15" data-name="Path 15" d="M237.025,157.882c-11.9,3.4-19.3,14.2-19.3,27.3.6,7.9,1.1,15.9,1.7,23.8,1.7,30.1,3.4,59.6,5.1,89.7a18.32,18.32,0,0,0,18.7,17.6c10.2,0,18.2-7.9,18.7-18.2,0-6.2,0-11.9.6-18.2,1.1-19.3,2.3-38.6,3.4-57.9.6-12.5,1.7-25,2.3-37.5a30.88,30.88,0,0,0-2.3-12.5A25.064,25.064,0,0,0,237.025,157.882Z" fill="#fff"/>
    </g>
  </g>
</svg>
